<svg width="1200" height="620" viewBox="0 0 1200 620" fill="none" xmlns="http://www.w3.org/2000/svg">
  <rect width="1200" height="620" rx="28" fill="#F7F4EE"/>
  <text x="64" y="76" fill="#1F1F1D" font-family="Segoe UI, Arial, sans-serif" font-size="34" font-weight="750">产品主线</text>
  <text x="64" y="112" fill="#6D675E" font-family="Segoe UI, Arial, sans-serif" font-size="18">先把本地工作区做稳，再往 MCP、Skills、协作和自动化扩展。</text>
  <g transform="translate(64 164)">
    <rect width="252" height="172" rx="18" fill="#FFFFFF" stroke="#DDD6CC"/>
    <rect x="24" y="24" width="48" height="48" rx="12" fill="#D97757" opacity="0.16"/>
    <path d="M42 38H58M42 50H64M42 62H54" stroke="#C6613F" stroke-width="4" stroke-linecap="round"/>
    <text x="24" y="104" fill="#24231F" font-family="Segoe UI, Arial, sans-serif" font-size="24" font-weight="700">中文体验</text>
    <text x="24" y="134" fill="#6D675E" font-family="Segoe UI, Arial, sans-serif" font-size="16">界面、提示、设置、帮助</text>
  </g>
  <g transform="translate(344 164)">
    <rect width="252" height="172" rx="18" fill="#FFFFFF" stroke="#DDD6CC"/>
    <rect x="24" y="24" width="48" height="48" rx="12" fill="#497BA7" opacity="0.16"/>
    <path d="M42 36L32 48L42 60M58 36L68 48L58 60" stroke="#497BA7" stroke-width="4" stroke-linecap="round" stroke-linejoin="round"/>
    <text x="24" y="104" fill="#24231F" font-family="Segoe UI, Arial, sans-serif" font-size="24" font-weight="700">Code 工作区</text>
    <text x="24" y="134" fill="#6D675E" font-family="Segoe UI, Arial, sans-serif" font-size="16">文件、Diff、Git、命令执行</text>
  </g>
  <g transform="translate(624 164)">
    <rect width="252" height="172" rx="18" fill="#FFFFFF" stroke="#DDD6CC"/>
    <rect x="24" y="24" width="48" height="48" rx="12" fill="#6A8F5D" opacity="0.16"/>
    <path d="M48 34L64 42V53C64 63 57 69 48 72C39 69 32 63 32 53V42L48 34Z" stroke="#6A8F5D" stroke-width="4" stroke-linejoin="round"/>
    <text x="24" y="104" fill="#24231F" font-family="Segoe UI, Arial, sans-serif" font-size="24" font-weight="700">权限守卫</text>
    <text x="24" y="134" fill="#6D675E" font-family="Segoe UI, Arial, sans-serif" font-size="16">安全、项目、完全访问</text>
  </g>
  <g transform="translate(904 164)">
    <rect width="252" height="172" rx="18" fill="#FFFFFF" stroke="#DDD6CC"/>
    <rect x="24" y="24" width="48" height="48" rx="12" fill="#8D6E9F" opacity="0.16"/>
    <path d="M33 60H63V38H33V60ZM41 68H55" stroke="#8D6E9F" stroke-width="4" stroke-linecap="round" stroke-linejoin="round"/>
    <text x="24" y="104" fill="#24231F" font-family="Segoe UI, Arial, sans-serif" font-size="24" font-weight="700">预览稳定性</text>
    <text x="24" y="134" fill="#6D675E" font-family="Segoe UI, Arial, sans-serif" font-size="16">HTML / Artifact 沙盒预览</text>
  </g>
  <g transform="translate(64 386)">
    <rect width="1092" height="150" rx="18" fill="#24231F"/>
    <text x="34" y="48" fill="#F3EEE7" font-family="Segoe UI, Arial, sans-serif" font-size="24" font-weight="700">下一阶段</text>
    <g transform="translate(34 78)">
      <rect width="190" height="42" rx="10" fill="#33322E" stroke="#55514A"/>
      <text x="18" y="27" fill="#E8DCCB" font-family="Segoe UI, Arial, sans-serif" font-size="15">工作区健康检查</text>
    </g>
    <g transform="translate(248 78)">
      <rect width="190" height="42" rx="10" fill="#33322E" stroke="#55514A"/>
      <text x="18" y="27" fill="#E8DCCB" font-family="Segoe UI, Arial, sans-serif" font-size="15">命令审批和审计</text>
    </g>
    <g transform="translate(462 78)">
      <rect width="190" height="42" rx="10" fill="#33322E" stroke="#55514A"/>
      <text x="18" y="27" fill="#E8DCCB" font-family="Segoe UI, Arial, sans-serif" font-size="15">MCP 真实配置</text>
    </g>
    <g transform="translate(676 78)">
      <rect width="190" height="42" rx="10" fill="#33322E" stroke="#55514A"/>
      <text x="18" y="27" fill="#E8DCCB" font-family="Segoe UI, Arial, sans-serif" font-size="15">Skills 详情绑定</text>
    </g>
    <g transform="translate(890 78)">
      <rect width="168" height="42" rx="10" fill="#33322E" stroke="#55514A"/>
      <text x="18" y="27" fill="#E8DCCB" font-family="Segoe UI, Arial, sans-serif" font-size="15">Cowork 任务板</text>
    </g>
  </g>
</svg>
